<?xml version="1.0" encoding="UTF-8"?>
<svg width="26px" height="25px" viewBox="0 0 26 25" version="1.1" xmlns="http://www.w3.org/2000/svg">
    <title>blueIconSpot</title>
    <g id="Page-1" stroke="none" stroke-width="1" fill="none" fill-rule="evenodd">
        <g id="Artboard" transform="translate(-936.000000, -546.000000)">
            <g id="Group-7" transform="translate(604.000000, 175.000000)">
                <g id="Group" transform="translate(325.000000, 363.000000)">
                    <g id="blueIconSpot" transform="translate(7.000000, 8.000000)">
                        <ellipse id="Blue-Spot" stroke-opacity="0.8" stroke="#3EA4D1" fill-opacity="0.6" fill="#2BBEBE"
                                 cx="13" cy="12.5" rx="12.5" ry="12"></ellipse>
                        <g id="Icon-Random" transform="translate(7.000000, 4.000000)" fill="#FFFFFF"
                           fill-rule="nonzero">
                            <path d="M5.75301817,0 C8.90064974,0 12.0000009,1.4344898 12.0000009,4.86367347 C12.0000009,8.02653061 8.33611877,9.24244898 7.54874662,10.384898 C6.95821751,11.2353061 7.15506055,12.4291837 5.53203401,12.4291837 C4.47353843,12.4291837 3.95728971,11.5787755 3.95728971,10.8 C3.95728971,7.90346939 8.25998137,7.2477551 8.25998137,4.86367347 C8.25998137,3.55040816 7.37790172,2.77163265 5.89972194,2.77163265 C2.75394738,2.77346939 3.98328785,5.9822449 1.5988873,5.9822449 C0.737234758,5.9822449 9.37663385e-07,5.47163265 9.37663385e-07,4.49816327 C-0.0018551335,2.11408163 2.75209037,0 5.75301817,0 Z M5.63045552,14.0106122 C6.73537634,14.0106122 7.64716814,14.9106122 7.64716814,16.0053061 C7.64716814,17.1018367 6.73723335,18 5.63045552,18 C4.5236777,18 3.6137429,17.1018367 3.6137429,16.0053061 C3.6137429,14.9087755 4.5236777,14.0106122 5.63045552,14.0106122 Z"
                                  id="Shape"></path>
                        </g>
                    </g>
                </g>
            </g>
        </g>
    </g>
</svg>