<?xml version="1.0" encoding="UTF-8"?>
<svg width="278px" height="78px" viewBox="0 0 278 78" version="1.1" xmlns="http://www.w3.org/2000/svg">
    <title>Logo - CurioCity</title>
    <g id="Page-1" stroke="none" stroke-width="1" fill="none" fill-rule="evenodd">
        <g id="iPhone-11---1stTime---CreateProfile-Copy-3" transform="translate(-59.000000, -115.000000)">
            <g id="Logo---CurioCity" transform="translate(59.000000, 102.000000)">
                <rect id="Rectangle" fill="#12252B" x="0" y="22" width="158" height="69" rx="5"></rect>
                <path d="M62.76,71.9 C65.04,71.9 67.12,71.67 69,71.21 C70.88,70.75 72.46,70.12 73.74,69.32 C75.38,68.32 76.2,66.88 76.2,65 L76.2,65 L76.2,46.04 C76.2,44.36 75.8,43.22 75,42.62 C74.2,42.02 72.9,41.72 71.1,41.72 C70.22,41.72 69.42,41.78 68.7,41.9 C67.98,42.02 67.42,42.14 67.02,42.26 L67.02,42.26 L67.02,63.86 C66.66,64.06 66.13,64.25 65.43,64.43 C64.73,64.61 63.86,64.7 62.82,64.7 C61.14,64.7 59.84,64.31 58.92,63.53 C58,62.75 57.54,61.46 57.54,59.66 L57.54,59.66 L57.54,46.04 C57.54,44.36 57.15,43.22 56.37,42.62 C55.59,42.02 54.3,41.72 52.5,41.72 C51.62,41.72 50.82,41.78 50.1,41.9 C49.38,42.02 48.8,42.14 48.36,42.26 L48.36,42.26 L48.36,59.72 C48.36,61.88 48.71,63.72 49.41,65.24 C50.11,66.76 51.09,68.02 52.35,69.02 C53.61,70.02 55.12,70.75 56.88,71.21 C58.64,71.67 60.6,71.9 62.76,71.9 Z M88.02,71.42 C88.9,71.42 89.7,71.37 90.42,71.27 C91.14,71.17 91.7,71.06 92.1,70.94 L92.1,70.94 L92.1,50.06 C92.98,49.58 94,49.2 95.16,48.92 C96.32,48.64 97.48,48.5 98.64,48.5 C99.96,48.5 101.08,48.6 102,48.8 C102.24,48.4 102.46,47.92 102.66,47.36 C102.86,46.8 102.96,46.18 102.96,45.5 C102.96,42.7 100.88,41.3 96.72,41.3 C94.68,41.3 92.73,41.53 90.87,41.99 C89.01,42.45 87.42,43.08 86.1,43.88 C85.1,44.48 84.32,45.18 83.76,45.98 C83.2,46.78 82.92,47.74 82.92,48.86 L82.92,48.86 L82.92,67.16 C82.92,68.84 83.32,69.97 84.12,70.55 C84.92,71.13 86.22,71.42 88.02,71.42 Z M112.08,38.84 C113.6,38.84 114.83,38.36 115.77,37.4 C116.71,36.44 117.18,35.26 117.18,33.86 C117.18,32.5 116.71,31.34 115.77,30.38 C114.83,29.42 113.6,28.94 112.08,28.94 C110.56,28.94 109.33,29.42 108.39,30.38 C107.45,31.34 106.98,32.5 106.98,33.86 C106.98,35.26 107.45,36.44 108.39,37.4 C109.33,38.36 110.56,38.84 112.08,38.84 Z M112.56,71.42 C113.44,71.42 114.24,71.37 114.96,71.27 C115.68,71.17 116.24,71.06 116.64,70.94 L116.64,70.94 L116.64,46.28 C116.64,44.6 116.25,43.46 115.47,42.86 C114.69,42.26 113.4,41.96 111.6,41.96 C110.72,41.96 109.92,42.02 109.2,42.14 C108.48,42.26 107.92,42.38 107.52,42.5 L107.52,42.5 L107.52,67.16 C107.52,68.84 107.91,69.97 108.69,70.55 C109.47,71.13 110.76,71.42 112.56,71.42 Z M137.7,71.9 C140.02,71.9 142.12,71.54 144,70.82 C145.88,70.1 147.49,69.08 148.83,67.76 C150.17,66.44 151.2,64.83 151.92,62.93 C152.64,61.03 153,58.9 153,56.54 C153,54.22 152.63,52.12 151.89,50.24 C151.15,48.36 150.11,46.75 148.77,45.41 C147.43,44.07 145.82,43.04 143.94,42.32 C142.06,41.6 139.98,41.24 137.7,41.24 C135.42,41.24 133.33,41.6 131.43,42.32 C129.53,43.04 127.91,44.06 126.57,45.38 C125.23,46.7 124.19,48.31 123.45,50.21 C122.71,52.11 122.34,54.22 122.34,56.54 C122.34,58.94 122.7,61.09 123.42,62.99 C124.14,64.89 125.17,66.5 126.51,67.82 C127.85,69.14 129.47,70.15 131.37,70.85 C133.27,71.55 135.38,71.9 137.7,71.9 Z M137.7,64.7 C135.78,64.7 134.31,64.01 133.29,62.63 C132.27,61.25 131.76,59.22 131.76,56.54 C131.76,53.94 132.28,51.94 133.32,50.54 C134.36,49.14 135.82,48.44 137.7,48.44 C139.58,48.44 141.04,49.15 142.08,50.57 C143.12,51.99 143.64,53.98 143.64,56.54 C143.64,59.18 143.13,61.2 142.11,62.6 C141.09,64 139.62,64.7 137.7,64.7 Z"
                      id="urio" fill="#FFFFFF" fill-rule="nonzero"></path>
                <path d="M210.22,38.84 C211.74,38.84 212.97,38.36 213.91,37.4 C214.85,36.44 215.32,35.26 215.32,33.86 C215.32,32.5 214.85,31.34 213.91,30.38 C212.97,29.42 211.74,28.94 210.22,28.94 C208.7,28.94 207.47,29.42 206.53,30.38 C205.59,31.34 205.12,32.5 205.12,33.86 C205.12,35.26 205.59,36.44 206.53,37.4 C207.47,38.36 208.7,38.84 210.22,38.84 Z M210.7,71.42 C211.58,71.42 212.38,71.37 213.1,71.27 C213.82,71.17 214.38,71.06 214.78,70.94 L214.78,70.94 L214.78,46.28 C214.78,44.6 214.39,43.46 213.61,42.86 C212.83,42.26 211.54,41.96 209.74,41.96 C208.86,41.96 208.06,42.02 207.34,42.14 C206.62,42.26 206.06,42.38 205.66,42.5 L205.66,42.5 L205.66,67.16 C205.66,68.84 206.05,69.97 206.83,70.55 C207.61,71.13 208.9,71.42 210.7,71.42 Z M232.6,71.9 C235.32,71.9 237.23,71.45 238.33,70.55 C239.43,69.65 239.98,68.5 239.98,67.1 C239.98,66.42 239.86,65.82 239.62,65.3 C239.38,64.78 239.08,64.32 238.72,63.92 C238.24,64.12 237.66,64.29 236.98,64.43 C236.3,64.57 235.66,64.64 235.06,64.64 C233.78,64.64 232.78,64.39 232.06,63.89 C231.34,63.39 230.98,62.58 230.98,61.46 L230.98,61.46 L230.98,49.82 L237.04,49.82 C237.96,49.82 238.71,49.54 239.29,48.98 C239.87,48.42 240.16,47.5 240.16,46.22 C240.16,45.54 240.06,44.89 239.86,44.27 C239.66,43.65 239.46,43.14 239.26,42.74 L239.26,42.74 L230.98,42.74 L230.98,38.84 C230.98,37.2 230.59,36.07 229.81,35.45 C229.03,34.83 227.76,34.52 226,34.52 C225.16,34.52 224.38,34.59 223.66,34.73 C222.94,34.87 222.36,35 221.92,35.12 L221.92,35.12 L221.92,62.06 C221.92,65.54 222.86,68.05 224.74,69.59 C226.62,71.13 229.24,71.9 232.6,71.9 Z"
                      id="it" fill="#FFFFFF" fill-rule="nonzero"></path>
                <path d="M29,38 C35.1335651,38 40.751231,40.1646506 45.1009447,43.75694 L35.5668667,53.2010255 C33.7029505,51.934478 31.4399156,51.1923077 29,51.1923077 C22.6274837,51.1923077 17.4615385,56.254934 17.4615385,62.5 C17.4615385,68.745066 22.6274837,73.8076923 29,73.8076923 C31.3407667,73.8076923 33.5187361,73.1246144 35.3376769,71.9507653 L44.8915933,81.4140628 C40.5716801,84.9039329 35.0356169,87 29,87 C15.1928813,87 4,76.0309764 4,62.5 C4,48.9690236 15.1928813,38 29,38 Z"
                      id="Combined-Shape-Copy" fill="#FFFFFF" fill-rule="nonzero"></path>
                <path d="M186,38 C192.119428,38 197.725332,40.1546837 202.070848,43.7321237 L192.533797,53.1786375 C190.676211,51.9257365 188.425504,51.1923077 186,51.1923077 C179.627484,51.1923077 174.461538,56.254934 174.461538,62.5 C174.461538,68.745066 179.627484,73.8076923 186,73.8076923 C188.327033,73.8076923 190.493173,73.1326065 192.305623,71.9713763 L201.861628,81.4382328 C197.546093,84.9136085 192.02167,87 186,87 C172.192881,87 161,76.0309764 161,62.5 C161,48.9690236 172.192881,38 186,38 Z"
                      id="Combined-Shape-Copy-2" fill="#FFFFFF" fill-rule="nonzero"></path>
                <path d="M278,13.2001902 L260.504,41.8201902 L260.504673,71.018787 L247.495327,71.018787 L247.495,41.8211902 L230,13.2001902 L242.6,13.2 L254,32.2001902 L265.4,13.2 L278,13.2001902 Z"
                      id="Combined-Shape-Copy" fill="#FFFFFF"></path>
            </g>
        </g>
    </g>
</svg>