<?xml version="1.0" encoding="UTF-8"?>
<svg width="26px" height="25px" viewBox="0 0 26 25" version="1.1" xmlns="http://www.w3.org/2000/svg">
    <title>greyRestaurantSpot</title>
    <g id="Page-1" stroke="none" stroke-width="1" fill="none" fill-rule="evenodd">
        <g id="Artboard" transform="translate(-1066.000000, -468.000000)">
            <g id="Group-7" transform="translate(604.000000, 175.000000)">
                <g id="Group-Copy" transform="translate(455.000000, 143.000000)">
                    <g id="greyRestaurantSpot" transform="translate(7.000000, 150.000000)">
                        <ellipse id="Grey-Spot" stroke="#616567" fill-opacity="0.6" fill="#A2AEAE" cx="13" cy="12.5"
                                 rx="12.5" ry="12"></ellipse>
                        <g id="Icon-Restaurant" transform="translate(7.000000, 4.000000)" fill="#FFFFFF"
                           fill-rule="nonzero">
                            <path d="M11,15.9646334 C10.9983242,16.5987018 10.8407983,17.001726 10.2592931,16.9999944 C9.67778793,16.9982517 9.55042657,16.5934903 9.55210238,15.9594219 L9.53199269,9.95401315 C9.51020719,9.95575032 7.88132236,9.72470624 7.33333333,8.02401339 C7.33333333,8.02401339 8.0019805,-0.00693968661 10.5106642,4.50076893e-06 C11.1508227,0.00174618088 10.9681597,1.75802859 10.9681597,1.75802859 L11,15.9646334 Z M3.68001324,7.83933306 L3.35787558,7.83933306 L3.81287227,15.9603141 C3.81287227,16.5949016 3.21227664,16.9999944 2.58074123,16.9999944 C1.94920582,16.9999944 1.38136995,16.5949016 1.38136995,15.9603141 L1.85456651,7.84628744 L1.512409,7.83933306 C1.25215089,7.83933306 0,5.64522513 0,5.26099546 L0.587855725,4.50076893e-06 C0.589675711,0.00695888405 1.41230973,0.0312992256 1.41230973,0.0312992256 L1.40138981,3.4963207 C1.40138981,3.89445914 1.39046989,4.2021906 1.80542687,4.2021906 C2.22038385,4.2021906 2.22584381,3.89619774 2.22584381,3.4963207 L2.22584381,0.0312992256 L3.35787558,0.0312992256 L3.35787558,3.54152419 C3.35787558,3.93966263 3.41247518,4.19523622 3.82743216,4.19523622 C4.24238915,4.19523622 4.2351092,3.94140123 4.2351092,3.54152419 L4.2351092,0.0312992256 C4.2351092,0.0312992256 4.88484447,0.0312992256 4.92124421,0.0312992256 L5.5,5.26273405 C5.5,5.64870232 3.93663137,7.83933306 3.68001324,7.83933306 Z"
                                  id="Shape"></path>
                        </g>
                    </g>
                </g>
            </g>
        </g>
    </g>
</svg>