<?xml version="1.0" encoding="UTF-8"?>
<svg width="26px" height="25px" viewBox="0 0 26 25" version="1.1" xmlns="http://www.w3.org/2000/svg">
    <title>greyConcertSpot</title>
    <g id="Page-1" stroke="none" stroke-width="1" fill="none" fill-rule="evenodd">
        <g id="Artboard" transform="translate(-1066.000000, -361.000000)">
            <g id="Group-7" transform="translate(604.000000, 175.000000)">
                <g id="Group-Copy" transform="translate(455.000000, 143.000000)">
                    <g id="greyConcertSpot" transform="translate(7.000000, 43.000000)">
                        <ellipse id="Grey-Spot" stroke="#616567" fill-opacity="0.6" fill="#A2AEAE" cx="13" cy="12.5"
                                 rx="12.5" ry="12"></ellipse>
                        <g id="Icon-Concert" transform="translate(5.000000, 5.000000)" fill="#FFFFFF"
                           fill-rule="nonzero">
                            <path d="M14,0.866238139 L14,10.9611264 C14,11.2610958 13.8962963,11.5289256 13.6904367,11.7630854 C13.4830293,11.9972452 13.2229961,12.1793695 12.9072416,12.3079278 C12.591487,12.4364861 12.2772803,12.5329048 11.9630735,12.5956535 C11.6488668,12.6584022 11.3563295,12.6905418 11.0839138,12.6905418 C10.8099502,12.6905418 10.5174129,12.6584022 10.204754,12.5956535 C9.89209508,12.5329048 9.57788834,12.4364861 9.26058596,12.3079278 C8.94328358,12.1793695 8.68325041,11.9972452 8.47739082,11.7630854 C8.26998342,11.5289256 8.16782753,11.2610958 8.16782753,10.9611264 C8.16782753,10.661157 8.27153123,10.3933272 8.47739082,10.1591674 C8.68325041,9.92500765 8.9448314,9.74288338 9.26058596,9.61432507 C9.57634052,9.48576676 9.89054726,9.38934803 10.204754,9.32659933 C10.5174129,9.26385063 10.8114981,9.23171105 11.0839138,9.23171105 C11.7216142,9.23171105 12.305141,9.34955617 12.8344942,9.58371595 L12.8344942,4.74288338 L5.83217247,6.87940006 L5.83217247,13.2705846 C5.83217247,13.570554 5.72846877,13.8383838 5.52260918,14.0725436 C5.31674959,14.3067034 5.0551686,14.4888277 4.73941404,14.617386 C4.42365948,14.7459443 4.10945274,14.842363 3.79524599,14.9051117 C3.48103925,14.9678604 3.18850193,15 2.91608624,15 C2.64212272,15 2.34958541,14.9678604 2.03692648,14.9051117 C1.72426755,14.842363 1.41006081,14.7459443 1.09275843,14.617386 C0.77700387,14.4888277 0.515422886,14.3067034 0.309563295,14.0725436 C0.102155887,13.8383838 0,13.570554 0,13.2705846 C0,12.9706152 0.103703704,12.7027854 0.309563295,12.4686257 C0.515422886,12.2344659 0.77700387,12.0523416 1.09275843,11.9237833 C1.40851299,11.795225 1.72271973,11.6988062 2.03692648,11.6360575 C2.34958541,11.5733088 2.64367054,11.5411693 2.91608624,11.5411693 C3.55378662,11.5411693 4.13731343,11.6590144 4.66666667,11.8931742 L4.66666667,3.1741659 C4.66666667,2.98745026 4.72393588,2.81756964 4.84002211,2.66452403 C4.95610835,2.51147842 5.10469873,2.4043465 5.28734107,2.34465871 L12.8716418,0.0367309458 C12.9443892,0.0122436486 13.0295191,0 13.1270315,0 C13.3700387,0 13.5774461,0.0841750842 13.7461581,0.252525253 C13.9148701,0.422405877 14,0.625956535 14,0.866238139 L14,0.866238139 Z"
                                  id="Path"></path>
                        </g>
                    </g>
                </g>
            </g>
        </g>
    </g>
</svg>