<?xml version="1.0" encoding="UTF-8"?>
<svg width="26px" height="25px" viewBox="0 0 26 25" version="1.1" xmlns="http://www.w3.org/2000/svg">
    <title>greyStoreSpot</title>
    <g id="Page-1" stroke="none" stroke-width="1" fill="none" fill-rule="evenodd">
        <g id="Artboard" transform="translate(-1066.000000, -397.000000)">
            <g id="Group-7" transform="translate(604.000000, 175.000000)">
                <g id="Group-Copy" transform="translate(455.000000, 143.000000)">
                    <g id="greyStoreSpot" transform="translate(7.000000, 79.000000)">
                        <ellipse id="Grey-Spot" stroke="#616567" fill-opacity="0.6" fill="#A2AEAE" cx="13" cy="12.5"
                                 rx="12.5" ry="12"></ellipse>
                        <g id="Icon-Store" transform="translate(5.000000, 5.000000)" fill="#FFFFFF" fill-rule="nonzero">
                            <path d="M2.97089118,1.14285714 L13.0291088,1.14285714 C13.4082699,1.14285714 13.7142857,0.887643946 13.7142857,0.571428571 C13.7142857,0.255213196 13.4067771,1.29674049e-13 13.0291088,1.29674049e-13 L2.97089118,1.29674049e-13 C2.59173011,1.29674049e-13 2.28571429,0.255213196 2.28571429,0.571428571 C2.28571429,0.886399004 2.59173011,1.14285714 2.97089118,1.14285714 Z M14.5942857,2.28571429 L1.40571429,2.28571429 L0,6.0124929 C0,7.11089478 0.894693878,8 2,8 C3.10530612,8 4,7.11089478 4,6.0124929 C4,7.11089478 4.89469388,8 6,8 C7.10530612,8 8,7.11089478 8,6.0124929 C8,7.11089478 8.89469388,8 10,8 C11.1053061,8 12,7.11089478 12,6.0124929 C12,7.11089478 12.8946939,8 14,8 C15.1053061,8 16,7.11089478 16,6.0124929 L14.5942857,2.28571429 L14.5942857,2.28571429 Z M13.0540065,9.31406581 L13.0540065,9.31406581 C12.9908494,9.30778293 12.9291276,9.29678787 12.8674059,9.28579282 C12.8544874,9.28265138 12.8401335,9.28265138 12.827215,9.27950993 C12.7985072,9.27322705 12.7712348,9.26537344 12.742527,9.25751983 C12.6233897,9.22767612 12.5071231,9.1899788 12.3951627,9.14285714 L12.3951627,12.6926883 L3.60340187,12.6926883 L3.60340187,9.14285714 C3.49144149,9.19154952 3.37373955,9.22767612 3.25460222,9.25751983 C3.22589443,9.26537344 3.19862203,9.27322705 3.17134963,9.27950993 C3.15843112,9.28265138 3.14407722,9.2842221 3.13115872,9.28579282 C3.06943697,9.29678787 3.00771522,9.30778293 2.94455808,9.31406581 L2.94455808,9.31406581 C2.87135321,9.32191942 2.79958374,9.32506087 2.72494348,9.32506087 C2.57422758,9.32506087 2.42781785,9.30778293 2.28571429,9.27950993 L2.28571429,14.1361816 C2.28571429,14.5351449 2.57996914,14.8571429 2.94455808,14.8571429 L13.0554419,14.8571429 C13.4200309,14.8571429 13.7142857,14.5335742 13.7142857,14.1361816 L13.7142857,9.28108066 C13.5721822,9.30935365 13.424337,9.32663159 13.2750565,9.32663159 C13.2004163,9.32663159 13.1272114,9.32191942 13.0540065,9.31406581 L13.0540065,9.31406581 Z"
                                  id="Shape"></path>
                        </g>
                    </g>
                </g>
            </g>
        </g>
    </g>
</svg>