<?xml version="1.0" encoding="UTF-8"?>
<svg width="36px" height="36px" viewBox="0 0 36 36" version="1.1" xmlns="http://www.w3.org/2000/svg">
    <title>location-02</title>
    <g id="Page-1" stroke="none" stroke-width="1" fill="none" fill-rule="evenodd">
        <g id="location-02" fill="#FFFFFF" fill-rule="nonzero">
            <path d="M18,11 C14.1472868,11 11,14.1472868 11,18 C11,21.8527132 14.1472868,25 18,25 C21.8527132,25 25,21.8527132 25,18 C25,14.1472868 21.8527132,11 18,11 Z"
                  id="XMLID_3_"></path>
            <path d="M36,16.9476923 L31.7353846,16.9476923 C31.2369231,10.1353846 25.8092308,4.76307692 18.9969231,4.26461538 L18.9969231,0 L16.9476923,0 L16.9476923,4.26461538 C10.1353846,4.76307692 4.76307692,10.1907692 4.26461538,17.0030769 L0,17.0030769 L0,19.0523077 L4.26461538,19.0523077 C4.76307692,25.8646154 10.1907692,31.2369231 17.0030769,31.7353846 L17.0030769,36 L19.0523077,36 L19.0523077,31.7353846 C25.8646154,31.2369231 31.2369231,25.8092308 31.7353846,18.9969231 L36,18.9969231 L36,16.9476923 Z M18,29.7415385 C11.52,29.7415385 6.25846154,24.48 6.25846154,18 C6.25846154,11.52 11.52,6.25846154 18,6.20307692 C24.48,6.20307692 29.7415385,11.4646154 29.7969231,17.9446154 C29.7415385,24.48 24.48,29.7415385 18,29.7415385 Z"
                  id="XMLID_6_"></path>
        </g>
    </g>
</svg>