<?xml version="1.0" encoding="UTF-8"?>
<svg width="26px" height="25px" viewBox="0 0 26 25" version="1.1" xmlns="http://www.w3.org/2000/svg">
    <title>redIconSpot</title>
    <g id="Page-1" stroke="none" stroke-width="1" fill="none" fill-rule="evenodd">
        <g id="Artboard" transform="translate(-936.000000, -652.000000)">
            <g id="Group-7" transform="translate(604.000000, 175.000000)">
                <g id="Group" transform="translate(325.000000, 363.000000)">
                    <g id="redIconSpot" transform="translate(7.000000, 114.000000)">
                        <ellipse id="Red-Spot" stroke-opacity="0.8" stroke="#CE4343" fill-opacity="0.6" fill="#C74F67"
                                 cx="13" cy="12.5" rx="12.5" ry="12"></ellipse>
                        <g id="Icon-Bar" transform="translate(6.000000, 4.000000)" fill="#FFFFFF" fill-rule="nonzero">
                            <path d="M12.8775298,4.20648074 C13.0000224,4.07294394 13.0332511,3.8752401 12.9653301,3.70528417 C12.8957525,3.53532824 12.7350614,3.42433662 12.5594609,3.42433662 L9.19820071,3.42433662 L9.70843636,2.27800122 C10.1954795,2.43928593 10.718968,2.23291087 10.9260442,1.76986768 C11.1331203,1.30682448 10.9475801,0.753600592 10.5168617,0.46571606 L10.6261979,0.219453387 C10.6609867,0.141412399 10.6295111,0.0512317023 10.5549637,0.0148125747 C10.4804163,-0.021606553 10.3942726,0.0113440863 10.3594838,0.0893850741 L10.2501476,0.335647747 C9.76310447,0.174363039 9.23961595,0.380738095 9.03253979,0.843781289 C8.82546364,1.30682448 9.01100387,1.86004837 9.44172227,2.14793291 L8.87184869,3.42433662 L0.441364274,3.42433662 C0.264107085,3.42433662 0.105072598,3.53532824 0.03549501,3.70528417 C-0.0340825781,3.8752401 0.000706215981,4.07294394 0.12163869,4.20648074 L6.09702822,10.742847 L6.09702822,16.190108 L4.43710576,16.190108 C4.22340317,16.190108 4.05111581,16.3704694 4.05111581,16.5941869 C4.05111581,16.8179044 4.22340317,17 4.43710576,17 L8.56206277,17 C8.77576536,17 8.94805272,16.8196386 8.94805272,16.5941869 C8.94805272,16.3722036 8.77576536,16.190108 8.56206277,16.190108 L6.90214031,16.190108 L6.90214031,10.7445813 L12.8775298,4.20648074 Z M8.46266621,4.35042301 L7.89113602,5.63376369 L3.29238878,5.63376369 L6.49958426,9.14040541 L9.70677975,5.63202945 L8.21583144,5.63202945 L8.78736162,4.34868876 L11.5257367,4.34868876 L6.49958426,9.84624279 L1.47343183,4.35042301 L8.46266621,4.35042301 Z"
                                  id="Shape"></path>
                        </g>
                    </g>
                </g>
            </g>
        </g>
    </g>
</svg>